# xmcd
#
# Track frame offsets:
#	150
#	14453
#	28040
#	35595
#	43570
#	57450
#	68583
#	81183
#	92358
#	104898
#
# Disc length: 1561 seconds
#
# Revision: 0
# Processed by: cddbd v1.5.2PL0 Copyright (c) Steve Scherf et al.
# Submitted via: EasyCDDAExtractor 2010.4.0.0
#
DISCID=7f06170a
DTITLE=Kitty Wells/Roy Drusky - Heartbreat U.S.A.
DYEAR=1900
DGENRE=
TTITLE0=It Wasn't God Who Made Honky Tonk Angels
TTITLE1=Making Believe
TTITLE2=Second Hand Rose
TTITLE3=Peel Me A 'Nanner
TTITLE4=Jody And The Kid
TTITLE5=Heartbreak U.S.A.
TTITLE6=Mommy For A Day
TTITLE7=Long, Long Texas Road
TTITLE8=As Long As I Live
TTITLE9=If The Whole World Stopped Loving
EXTD=
EXTT0=
EXTT1=
EXTT2=
EXTT3=
EXTT4=
EXTT5=
EXTT6=
EXTT7=
EXTT8=
EXTT9=
PLAYORDER=
